<?xml version="1.0" encoding="UTF-8"?>
<svg height="430" viewBox="11.597656 20.0 2008.4023 430.0" width="2008.4023" xmlns="http://www.w3.org/2000/svg" xmlns:xlink="http://www.w3.org/1999/xlink"><g id="Layer_0"/><g id="Layer_1"/><g id="Layer_2"/><g id="Layer_3"/><g id="Layer_4"/><g id="Nodes"><g xmlns:intalio="http://www.intalio.com/bpms" intalio:process-id="ID-ee0dc690-c01f-1004-84a4-09d08589d8f5" intalio:process-name="Pool" intalio:process-namespace="http://www.example.com" intalio:process-version="1.0" style="color-interpolation:auto;color-rendering:auto;fill:black;fill-opacity:1;font-family:sans-serif;font-size:12;font-style:normal;font-weight:normal;image-rendering:auto;shape-rendering:auto;stroke:black;stroke-dasharray:none;stroke-dashoffset:0;stroke-linecap:square;stroke-linejoin:miter;stroke-miterlimit:10;stroke-opacity:1;stroke-width:1;text-rendering:auto"><g style="fill:rgb(221,221,255);fill-opacity:0.6666666865348816;stroke:rgb(221,221,255);stroke-opacity:0.6666666865348816"><rect height="199" style="stroke:none" width="2007.40234375" x="12.09765625" y="20.5"/></g><g style="fill:rgb(169,169,169);stroke:rgb(169,169,169);stroke-linecap:butt"><rect height="199" style="fill:none" width="2007.40234375" x="12.09765625" y="20.5"/></g><g style="shape-rendering:geometricPrecision;text-rendering:optimizeLegibility" transform="matrix(6.123233995736766E-17,-1,1,6.123233995736766E-17,29.162109375,132.0087890625)"><path d="M0.921875 0 L0.921875 -8.59375 L4.171875 -8.59375 Q5.015625 -8.59375 5.46875 -8.515625 Q6.109375 -8.40625 6.5390625 -8.109375 Q6.96875 -7.8125 7.2265625 -7.28125 Q7.484375 -6.75 7.484375 -6.109375 Q7.484375 -5.015625 6.7890625 -4.2578125 Q6.09375 -3.5 4.265625 -3.5 L2.0625 -3.5 L2.0625 0 L0.921875 0 ZM2.0625 -4.5 L4.28125 -4.5 Q5.390625 -4.5 5.8515625 -4.9140625 Q6.3125 -5.328125 6.3125 -6.078125 Q6.3125 -6.609375 6.0390625 -6.9921875 Q5.765625 -7.375 5.328125 -7.5 Q5.03125 -7.578125 4.265625 -7.578125 L2.0625 -7.578125 L2.0625 -4.5 ZM8.41015625 -3.109375 Q8.41015625 -4.84375 9.36328125 -5.671875 Q10.16015625 -6.359375 11.31640625 -6.359375 Q12.59765625 -6.359375 13.41796875 -5.5234375 Q14.23828125 -4.6875 14.23828125 -3.203125 Q14.23828125 -2 13.87890625 -1.3125 Q13.51953125 -0.625 12.82421875 -0.2421875 Q12.12890625 0.140625 11.31640625 0.140625 Q10.01953125 0.140625 9.21484375 -0.6953125 Q8.41015625 -1.53125 8.41015625 -3.109375 ZM9.48828125 -3.109375 Q9.48828125 -1.921875 10.01171875 -1.328125 Q10.53515625 -0.734375 11.31640625 -0.734375 Q12.11328125 -0.734375 12.62890625 -1.328125 Q13.14453125 -1.921875 13.14453125 -3.140625 Q13.14453125 -4.296875 12.62109375 -4.890625 Q12.09765625 -5.484375 11.31640625 -5.484375 Q10.53515625 -5.484375 10.01171875 -4.8984375 Q9.48828125 -4.3125 9.48828125 -3.109375 ZM15.083984375 -3.109375 Q15.083984375 -4.84375 16.037109375 -5.671875 Q16.833984375 -6.359375 17.990234375 -6.359375 Q19.271484375 -6.359375 20.091796875 -5.5234375 Q20.912109375 -4.6875 20.912109375 -3.203125 Q20.912109375 -2 20.552734375 -1.3125 Q20.193359375 -0.625 19.498046875 -0.2421875 Q18.802734375 0.140625 17.990234375 0.140625 Q16.693359375 0.140625 15.888671875 -0.6953125 Q15.083984375 -1.53125 15.083984375 -3.109375 ZM16.162109375 -3.109375 Q16.162109375 -1.921875 16.685546875 -1.328125 Q17.208984375 -0.734375 17.990234375 -0.734375 Q18.787109375 -0.734375 19.302734375 -1.328125 Q19.818359375 -1.921875 19.818359375 -3.140625 Q19.818359375 -4.296875 19.294921875 -4.890625 Q18.771484375 -5.484375 17.990234375 -5.484375 Q17.208984375 -5.484375 16.685546875 -4.8984375 Q16.162109375 -4.3125 16.162109375 -3.109375 ZM22.1171875 0 L22.1171875 -8.59375 L23.1796875 -8.59375 L23.1796875 0 L22.1171875 0 Z" style="stroke:none"/></g></g><g style="color-interpolation:auto;color-rendering:auto;fill:black;fill-opacity:1;font-family:sans-serif;font-size:12;font-style:normal;font-weight:normal;image-rendering:auto;shape-rendering:auto;stroke:black;stroke-dasharray:none;stroke-dashoffset:0;stroke-linecap:square;stroke-linejoin:miter;stroke-miterlimit:10;stroke-opacity:1;stroke-width:1;text-rendering:auto"><g style="fill:rgb(221,221,255);fill-opacity:0.6666666865348816;stroke:rgb(221,221,255);stroke-opacity:0.6666666865348816"><rect height="199" style="stroke:none" width="2007.40234375" x="12.09765625" y="250.5"/></g><g style="fill:rgb(169,169,169);stroke:rgb(169,169,169);stroke-linecap:butt"><rect height="199" style="fill:none" width="2007.40234375" x="12.09765625" y="250.5"/></g><g style="shape-rendering:geometricPrecision;text-rendering:optimizeLegibility" transform="matrix(6.123233995736766E-17,-1,1,6.123233995736766E-17,29.162109375,394.349609375)"><path d="M4.875 0 L4.875 -0.921875 Q4.140625 0.140625 2.890625 0.140625 Q2.34375 0.140625 1.8671875 -0.0703125 Q1.390625 -0.28125 1.15625 -0.6015625 Q0.921875 -0.921875 0.828125 -1.390625 Q0.765625 -1.6875 0.765625 -2.375 L0.765625 -6.21875 L1.828125 -6.21875 L1.828125 -2.765625 Q1.828125 -1.953125 1.890625 -1.65625 Q1.984375 -1.25 2.3046875 -1.0078125 Q2.625 -0.765625 3.109375 -0.765625 Q3.578125 -0.765625 3.9921875 -1.0078125 Q4.40625 -1.25 4.5859375 -1.671875 Q4.765625 -2.09375 4.765625 -2.890625 L4.765625 -6.21875 L5.8125 -6.21875 L5.8125 0 L4.875 0 ZM7.048828125 -1.859375 L8.080078125 -2.015625 Q8.173828125 -1.390625 8.572265625 -1.0625 Q8.970703125 -0.734375 9.705078125 -0.734375 Q10.423828125 -0.734375 10.775390625 -1.0234375 Q11.126953125 -1.3125 11.126953125 -1.71875 Q11.126953125 -2.078125 10.814453125 -2.28125 Q10.595703125 -2.421875 9.736328125 -2.640625 Q8.580078125 -2.9375 8.134765625 -3.1484375 Q7.689453125 -3.359375 7.455078125 -3.734375 Q7.220703125 -4.109375 7.220703125 -4.578125 Q7.220703125 -4.984375 7.408203125 -5.34375 Q7.595703125 -5.703125 7.923828125 -5.9375 Q8.173828125 -6.109375 8.595703125 -6.234375 Q9.017578125 -6.359375 9.517578125 -6.359375 Q10.236328125 -6.359375 10.791015625 -6.1484375 Q11.345703125 -5.9375 11.611328125 -5.578125 Q11.876953125 -5.21875 11.970703125 -4.625 L10.939453125 -4.484375 Q10.876953125 -4.953125 10.541015625 -5.2265625 Q10.205078125 -5.5 9.580078125 -5.5 Q8.861328125 -5.5 8.548828125 -5.2578125 Q8.236328125 -5.015625 8.236328125 -4.6875 Q8.236328125 -4.484375 8.361328125 -4.328125 Q8.501953125 -4.15625 8.767578125 -4.046875 Q8.923828125 -3.984375 9.705078125 -3.78125 Q10.830078125 -3.46875 11.267578125 -3.28125 Q11.705078125 -3.09375 11.955078125 -2.734375 Q12.205078125 -2.375 12.205078125 -1.828125 Q12.205078125 -1.296875 11.900390625 -0.8359375 Q11.595703125 -0.375 11.017578125 -0.1171875 Q10.439453125 0.140625 9.705078125 0.140625 Q8.486328125 0.140625 7.853515625 -0.3671875 Q7.220703125 -0.875 7.048828125 -1.859375 ZM17.720703125 -2 L18.814453125 -1.875 Q18.564453125 -0.921875 17.861328125 -0.390625 Q17.158203125 0.140625 16.080078125 0.140625 Q14.720703125 0.140625 13.916015625 -0.703125 Q13.111328125 -1.546875 13.111328125 -3.0625 Q13.111328125 -4.625 13.923828125 -5.4921875 Q14.736328125 -6.359375 16.017578125 -6.359375 Q17.267578125 -6.359375 18.056640625 -5.515625 Q18.845703125 -4.671875 18.845703125 -3.125 Q18.845703125 -3.03125 18.845703125 -2.84375 L14.205078125 -2.84375 Q14.267578125 -1.8125 14.783203125 -1.2734375 Q15.298828125 -0.734375 16.080078125 -0.734375 Q16.658203125 -0.734375 17.072265625 -1.0390625 Q17.486328125 -1.34375 17.720703125 -2 ZM14.267578125 -3.703125 L17.736328125 -3.703125 Q17.673828125 -4.5 17.345703125 -4.890625 Q16.830078125 -5.5 16.033203125 -5.5 Q15.298828125 -5.5 14.806640625 -5.015625 Q14.314453125 -4.53125 14.267578125 -3.703125 ZM20.12890625 0 L20.12890625 -6.21875 L21.08203125 -6.21875 L21.08203125 -5.28125 Q21.44140625 -5.9375 21.74609375 -6.1484375 Q22.05078125 -6.359375 22.42578125 -6.359375 Q22.95703125 -6.359375 23.50390625 -6.03125 L23.14453125 -5.046875 Q22.75390625 -5.28125 22.37890625 -5.28125 Q22.01953125 -5.28125 21.74609375 -5.0703125 Q21.47265625 -4.859375 21.36328125 -4.484375 Q21.17578125 -3.921875 21.17578125 -3.265625 L21.17578125 0 L20.12890625 0 ZM24.265625 0 L24.265625 -8.59375 L27.515625 -8.59375 Q28.359375 -8.59375 28.8125 -8.515625 Q29.453125 -8.40625 29.8828125 -8.109375 Q30.3125 -7.8125 30.5703125 -7.28125 Q30.828125 -6.75 30.828125 -6.109375 Q30.828125 -5.015625 30.1328125 -4.2578125 Q29.4375 -3.5 27.609375 -3.5 L25.40625 -3.5 L25.40625 0 L24.265625 0 ZM25.40625 -4.5 L27.625 -4.5 Q28.734375 -4.5 29.1953125 -4.9140625 Q29.65625 -5.328125 29.65625 -6.078125 Q29.65625 -6.609375 29.3828125 -6.9921875 Q29.109375 -7.375 28.671875 -7.5 Q28.375 -7.578125 27.609375 -7.578125 L25.40625 -7.578125 L25.40625 -4.5 ZM32.12890625 0 L32.12890625 -6.21875 L33.08203125 -6.21875 L33.08203125 -5.28125 Q33.44140625 -5.9375 33.74609375 -6.1484375 Q34.05078125 -6.359375 34.42578125 -6.359375 Q34.95703125 -6.359375 35.50390625 -6.03125 L35.14453125 -5.046875 Q34.75390625 -5.28125 34.37890625 -5.28125 Q34.01953125 -5.28125 33.74609375 -5.0703125 Q33.47265625 -4.859375 33.36328125 -4.484375 Q33.17578125 -3.921875 33.17578125 -3.265625 L33.17578125 0 L32.12890625 0 ZM35.75 -3.109375 Q35.75 -4.84375 36.703125 -5.671875 Q37.5 -6.359375 38.65625 -6.359375 Q39.9375 -6.359375 40.7578125 -5.5234375 Q41.578125 -4.6875 41.578125 -3.203125 Q41.578125 -2 41.21875 -1.3125 Q40.859375 -0.625 40.1640625 -0.2421875 Q39.46875 0.140625 38.65625 0.140625 Q37.359375 0.140625 36.5546875 -0.6953125 Q35.75 -1.53125 35.75 -3.109375 ZM36.828125 -3.109375 Q36.828125 -1.921875 37.3515625 -1.328125 Q37.875 -0.734375 38.65625 -0.734375 Q39.453125 -0.734375 39.96875 -1.328125 Q40.484375 -1.921875 40.484375 -3.140625 Q40.484375 -4.296875 39.9609375 -4.890625 Q39.4375 -5.484375 38.65625 -5.484375 Q37.875 -5.484375 37.3515625 -4.8984375 Q36.828125 -4.3125 36.828125 -3.109375 ZM46.876953125 -2.28125 L47.908203125 -2.140625 Q47.736328125 -1.078125 47.033203125 -0.46875 Q46.330078125 0.140625 45.314453125 0.140625 Q44.033203125 0.140625 43.259765625 -0.6953125 Q42.486328125 -1.53125 42.486328125 -3.09375 Q42.486328125 -4.09375 42.822265625 -4.8515625 Q43.158203125 -5.609375 43.837890625 -5.984375 Q44.517578125 -6.359375 45.330078125 -6.359375 Q46.330078125 -6.359375 46.978515625 -5.8515625 Q47.626953125 -5.34375 47.814453125 -4.390625 L46.783203125 -4.234375 Q46.642578125 -4.859375 46.267578125 -5.1796875 Q45.892578125 -5.5 45.361328125 -5.5 Q44.564453125 -5.5 44.064453125 -4.9296875 Q43.564453125 -4.359375 43.564453125 -3.125 Q43.564453125 -1.859375 44.048828125 -1.296875 Q44.533203125 -0.734375 45.298828125 -0.734375 Q45.923828125 -0.734375 46.337890625 -1.109375 Q46.751953125 -1.484375 46.876953125 -2.28125 ZM53.064453125 -2 L54.158203125 -1.875 Q53.908203125 -0.921875 53.205078125 -0.390625 Q52.501953125 0.140625 51.423828125 0.140625 Q50.064453125 0.140625 49.259765625 -0.703125 Q48.455078125 -1.546875 48.455078125 -3.0625 Q48.455078125 -4.625 49.267578125 -5.4921875 Q50.080078125 -6.359375 51.361328125 -6.359375 Q52.611328125 -6.359375 53.400390625 -5.515625 Q54.189453125 -4.671875 54.189453125 -3.125 Q54.189453125 -3.03125 54.189453125 -2.84375 L49.548828125 -2.84375 Q49.611328125 -1.8125 50.126953125 -1.2734375 Q50.642578125 -0.734375 51.423828125 -0.734375 Q52.001953125 -0.734375 52.416015625 -1.0390625 Q52.830078125 -1.34375 53.064453125 -2 ZM49.611328125 -3.703125 L53.080078125 -3.703125 Q53.017578125 -4.5 52.689453125 -4.890625 Q52.173828125 -5.5 51.376953125 -5.5 Q50.642578125 -5.5 50.150390625 -5.015625 Q49.658203125 -4.53125 49.611328125 -3.703125 ZM55.06640625 -1.859375 L56.09765625 -2.015625 Q56.19140625 -1.390625 56.58984375 -1.0625 Q56.98828125 -0.734375 57.72265625 -0.734375 Q58.44140625 -0.734375 58.79296875 -1.0234375 Q59.14453125 -1.3125 59.14453125 -1.71875 Q59.14453125 -2.078125 58.83203125 -2.28125 Q58.61328125 -2.421875 57.75390625 -2.640625 Q56.59765625 -2.9375 56.15234375 -3.1484375 Q55.70703125 -3.359375 55.47265625 -3.734375 Q55.23828125 -4.109375 55.23828125 -4.578125 Q55.23828125 -4.984375 55.42578125 -5.34375 Q55.61328125 -5.703125 55.94140625 -5.9375 Q56.19140625 -6.109375 56.61328125 -6.234375 Q57.03515625 -6.359375 57.53515625 -6.359375 Q58.25390625 -6.359375 58.80859375 -6.1484375 Q59.36328125 -5.9375 59.62890625 -5.578125 Q59.89453125 -5.21875 59.98828125 -4.625 L58.95703125 -4.484375 Q58.89453125 -4.953125 58.55859375 -5.2265625 Q58.22265625 -5.5 57.59765625 -5.5 Q56.87890625 -5.5 56.56640625 -5.2578125 Q56.25390625 -5.015625 56.25390625 -4.6875 Q56.25390625 -4.484375 56.37890625 -4.328125 Q56.51953125 -4.15625 56.78515625 -4.046875 Q56.94140625 -3.984375 57.72265625 -3.78125 Q58.84765625 -3.46875 59.28515625 -3.28125 Q59.72265625 -3.09375 59.97265625 -2.734375 Q60.22265625 -2.375 60.22265625 -1.828125 Q60.22265625 -1.296875 59.91796875 -0.8359375 Q59.61328125 -0.375 59.03515625 -0.1171875 Q58.45703125 0.140625 57.72265625 0.140625 Q56.50390625 0.140625 55.87109375 -0.3671875 Q55.23828125 -0.875 55.06640625 -1.859375 ZM61.06640625 -1.859375 L62.09765625 -2.015625 Q62.19140625 -1.390625 62.58984375 -1.0625 Q62.98828125 -0.734375 63.72265625 -0.734375 Q64.44140625 -0.734375 64.79296875 -1.0234375 Q65.14453125 -1.3125 65.14453125 -1.71875 Q65.14453125 -2.078125 64.83203125 -2.28125 Q64.61328125 -2.421875 63.75390625 -2.640625 Q62.59765625 -2.9375 62.15234375 -3.1484375 Q61.70703125 -3.359375 61.47265625 -3.734375 Q61.23828125 -4.109375 61.23828125 -4.578125 Q61.23828125 -4.984375 61.42578125 -5.34375 Q61.61328125 -5.703125 61.94140625 -5.9375 Q62.19140625 -6.109375 62.61328125 -6.234375 Q63.03515625 -6.359375 63.53515625 -6.359375 Q64.25390625 -6.359375 64.80859375 -6.1484375 Q65.36328125 -5.9375 65.62890625 -5.578125 Q65.89453125 -5.21875 65.98828125 -4.625 L64.95703125 -4.484375 Q64.89453125 -4.953125 64.55859375 -5.2265625 Q64.22265625 -5.5 63.59765625 -5.5 Q62.87890625 -5.5 62.56640625 -5.2578125 Q62.25390625 -5.015625 62.25390625 -4.6875 Q62.25390625 -4.484375 62.37890625 -4.328125 Q62.51953125 -4.15625 62.78515625 -4.046875 Q62.94140625 -3.984375 63.72265625 -3.78125 Q64.84765625 -3.46875 65.28515625 -3.28125 Q65.72265625 -3.09375 65.97265625 -2.734375 Q66.22265625 -2.375 66.22265625 -1.828125 Q66.22265625 -1.296875 65.91796875 -0.8359375 Q65.61328125 -0.375 65.03515625 -0.1171875 Q64.45703125 0.140625 63.72265625 0.140625 Q62.50390625 0.140625 61.87109375 -0.3671875 Q61.23828125 -0.875 61.06640625 -1.859375 ZM67.61328125 0 L67.61328125 -8.59375 L70.86328125 -8.59375 Q71.70703125 -8.59375 72.16015625 -8.515625 Q72.80078125 -8.40625 73.23046875 -8.109375 Q73.66015625 -7.8125 73.91796875 -7.28125 Q74.17578125 -6.75 74.17578125 -6.109375 Q74.17578125 -5.015625 73.48046875 -4.2578125 Q72.78515625 -3.5 70.95703125 -3.5 L68.75390625 -3.5 L68.75390625 0 L67.61328125 0 ZM68.75390625 -4.5 L70.97265625 -4.5 Q72.08203125 -4.5 72.54296875 -4.9140625 Q73.00390625 -5.328125 73.00390625 -6.078125 Q73.00390625 -6.609375 72.73046875 -6.9921875 Q72.45703125 -7.375 72.01953125 -7.5 Q71.72265625 -7.578125 70.95703125 -7.578125 L68.75390625 -7.578125 L68.75390625 -4.5 ZM75.1015625 -3.109375 Q75.1015625 -4.84375 76.0546875 -5.671875 Q76.8515625 -6.359375 78.0078125 -6.359375 Q79.2890625 -6.359375 80.109375 -5.5234375 Q80.9296875 -4.6875 80.9296875 -3.203125 Q80.9296875 -2 80.5703125 -1.3125 Q80.2109375 -0.625 79.515625 -0.2421875 Q78.8203125 0.140625 78.0078125 0.140625 Q76.7109375 0.140625 75.90625 -0.6953125 Q75.1015625 -1.53125 75.1015625 -3.109375 ZM76.1796875 -3.109375 Q76.1796875 -1.921875 76.703125 -1.328125 Q77.2265625 -0.734375 78.0078125 -0.734375 Q78.8046875 -0.734375 79.3203125 -1.328125 Q79.8359375 -1.921875 79.8359375 -3.140625 Q79.8359375 -4.296875 79.3125 -4.890625 Q78.7890625 -5.484375 78.0078125 -5.484375 Q77.2265625 -5.484375 76.703125 -4.8984375 Q76.1796875 -4.3125 76.1796875 -3.109375 ZM82.150390625 0 L82.150390625 -6.21875 L83.103515625 -6.21875 L83.103515625 -5.28125 Q83.462890625 -5.9375 83.767578125 -6.1484375 Q84.072265625 -6.359375 84.447265625 -6.359375 Q84.978515625 -6.359375 85.525390625 -6.03125 L85.166015625 -5.046875 Q84.775390625 -5.28125 84.400390625 -5.28125 Q84.041015625 -5.28125 83.767578125 -5.0703125 Q83.494140625 -4.859375 83.384765625 -4.484375 Q83.197265625 -3.921875 83.197265625 -3.265625 L83.197265625 0 L82.150390625 0 ZM88.458984375 -0.9375 L88.615234375 -0.015625 Q88.162109375 0.078125 87.818359375 0.078125 Q87.240234375 0.078125 86.927734375 -0.1015625 Q86.615234375 -0.28125 86.482421875 -0.578125 Q86.349609375 -0.875 86.349609375 -1.828125 L86.349609375 -5.40625 L85.583984375 -5.40625 L85.583984375 -6.21875 L86.349609375 -6.21875 L86.349609375 -7.765625 L87.396484375 -8.390625 L87.396484375 -6.21875 L88.458984375 -6.21875 L88.458984375 -5.40625 L87.396484375 -5.40625 L87.396484375 -1.765625 Q87.396484375 -1.3125 87.451171875 -1.1875 Q87.505859375 -1.0625 87.630859375 -0.984375 Q87.755859375 -0.90625 87.990234375 -0.90625 Q88.177734375 -0.90625 88.458984375 -0.9375 Z" style="stroke:none"/></g></g></g><g id="Nodes 1"><g style="color-interpolation:auto;color-rendering:auto;fill:black;fill-opacity:1;font-family:sans-serif;font-size:12;font-style:normal;font-weight:normal;image-rendering:auto;shape-rendering:auto;stroke:black;stroke-dasharray:none;stroke-dashoffset:0;stroke-linecap:square;stroke-linejoin:miter;stroke-miterlimit:10;stroke-opacity:1;stroke-width:1;text-rendering:auto"><g style="fill:rgb(221,221,255);fill-opacity:0.6666666865348816;stroke:rgb(221,221,255);stroke-opacity:0.6666666865348816"><rect height="199" style="stroke:none" width="1981.701171875" x="37.798828125" y="20.5"/></g><g style="fill:red;stroke:red;stroke-linecap:butt"><rect height="199" style="fill:none" width="1981.701171875" x="37.798828125" y="20.5"/></g><g style="shape-rendering:geometricPrecision;text-rendering:optimizeLegibility" transform="matrix(6.123233995736766E-17,-1,1,6.123233995736766E-17,54.86328124999977,133.34765625)"><path d="M0.875 0 L0.875 -8.59375 L2.015625 -8.59375 L2.015625 -1.015625 L6.25 -1.015625 L6.25 0 L0.875 0 ZM11.533203125 -0.765625 Q10.939453125 -0.265625 10.400390625 -0.0625 Q9.861328125 0.140625 9.236328125 0.140625 Q8.205078125 0.140625 7.658203125 -0.359375 Q7.111328125 -0.859375 7.111328125 -1.640625 Q7.111328125 -2.09375 7.314453125 -2.4765625 Q7.517578125 -2.859375 7.861328125 -3.0859375 Q8.205078125 -3.3125 8.626953125 -3.421875 Q8.923828125 -3.515625 9.564453125 -3.59375 Q10.830078125 -3.734375 11.439453125 -3.953125 Q11.439453125 -4.171875 11.439453125 -4.21875 Q11.439453125 -4.875 11.142578125 -5.140625 Q10.736328125 -5.484375 9.939453125 -5.484375 Q9.205078125 -5.484375 8.845703125 -5.2265625 Q8.486328125 -4.96875 8.314453125 -4.3125 L7.283203125 -4.453125 Q7.423828125 -5.109375 7.751953125 -5.515625 Q8.080078125 -5.921875 8.689453125 -6.140625 Q9.298828125 -6.359375 10.095703125 -6.359375 Q10.892578125 -6.359375 11.392578125 -6.171875 Q11.892578125 -5.984375 12.126953125 -5.703125 Q12.361328125 -5.421875 12.455078125 -4.984375 Q12.501953125 -4.71875 12.501953125 -4.015625 L12.501953125 -2.609375 Q12.501953125 -1.140625 12.572265625 -0.75 Q12.642578125 -0.359375 12.845703125 0 L11.736328125 0 Q11.580078125 -0.328125 11.533203125 -0.765625 ZM11.439453125 -3.125 Q10.861328125 -2.890625 9.720703125 -2.71875 Q9.064453125 -2.625 8.798828125 -2.5078125 Q8.533203125 -2.390625 8.384765625 -2.171875 Q8.236328125 -1.953125 8.236328125 -1.671875 Q8.236328125 -1.25 8.556640625 -0.96875 Q8.876953125 -0.6875 9.486328125 -0.6875 Q10.095703125 -0.6875 10.572265625 -0.953125 Q11.048828125 -1.21875 11.267578125 -1.6875 Q11.439453125 -2.046875 11.439453125 -2.734375 L11.439453125 -3.125 ZM14.14453125 0 L14.14453125 -6.21875 L15.08203125 -6.21875 L15.08203125 -5.34375 Q15.76953125 -6.359375 17.06640625 -6.359375 Q17.62890625 -6.359375 18.10546875 -6.15625 Q18.58203125 -5.953125 18.81640625 -5.625 Q19.05078125 -5.296875 19.14453125 -4.859375 Q19.19140625 -4.5625 19.19140625 -3.828125 L19.19140625 0 L18.14453125 0 L18.14453125 -3.78125 Q18.14453125 -4.4375 18.01953125 -4.75 Q17.89453125 -5.0625 17.58203125 -5.2578125 Q17.26953125 -5.453125 16.84765625 -5.453125 Q16.17578125 -5.453125 15.68359375 -5.0234375 Q15.19140625 -4.59375 15.19140625 -3.40625 L15.19140625 0 L14.14453125 0 ZM25.068359375 -2 L26.162109375 -1.875 Q25.912109375 -0.921875 25.208984375 -0.390625 Q24.505859375 0.140625 23.427734375 0.140625 Q22.068359375 0.140625 21.263671875 -0.703125 Q20.458984375 -1.546875 20.458984375 -3.0625 Q20.458984375 -4.625 21.271484375 -5.4921875 Q22.083984375 -6.359375 23.365234375 -6.359375 Q24.615234375 -6.359375 25.404296875 -5.515625 Q26.193359375 -4.671875 26.193359375 -3.125 Q26.193359375 -3.03125 26.193359375 -2.84375 L21.552734375 -2.84375 Q21.615234375 -1.8125 22.130859375 -1.2734375 Q22.646484375 -0.734375 23.427734375 -0.734375 Q24.005859375 -0.734375 24.419921875 -1.0390625 Q24.833984375 -1.34375 25.068359375 -2 ZM21.615234375 -3.703125 L25.083984375 -3.703125 Q25.021484375 -4.5 24.693359375 -4.890625 Q24.177734375 -5.5 23.380859375 -5.5 Q22.646484375 -5.5 22.154296875 -5.015625 Q21.662109375 -4.53125 21.615234375 -3.703125 Z" style="stroke:none"/></g></g><g style="color-interpolation:auto;color-rendering:auto;fill:black;fill-opacity:1;font-family:sans-serif;font-size:12;font-style:normal;font-weight:normal;image-rendering:auto;shape-rendering:auto;stroke:black;stroke-dasharray:none;stroke-dashoffset:0;stroke-linecap:square;stroke-linejoin:miter;stroke-miterlimit:10;stroke-opacity:1;stroke-width:1;text-rendering:auto"><g style="fill:rgb(221,221,255);fill-opacity:0.6666666865348816;stroke:rgb(221,221,255);stroke-opacity:0.6666666865348816"><rect height="199" style="stroke:none" width="1981.701171875" x="37.798828125" y="250.5"/></g><g style="fill:rgb(169,169,169);stroke:rgb(169,169,169);stroke-linecap:butt"><rect height="199" style="fill:none" width="1981.701171875" x="37.798828125" y="250.5"/></g><g style="shape-rendering:geometricPrecision;text-rendering:optimizeLegibility" transform="matrix(6.123233995736766E-17,-1,1,6.123233995736766E-17,54.86328124999977,363.34765625)"><path d="M0.875 0 L0.875 -8.59375 L2.015625 -8.59375 L2.015625 -1.015625 L6.25 -1.015625 L6.25 0 L0.875 0 ZM11.533203125 -0.765625 Q10.939453125 -0.265625 10.400390625 -0.0625 Q9.861328125 0.140625 9.236328125 0.140625 Q8.205078125 0.140625 7.658203125 -0.359375 Q7.111328125 -0.859375 7.111328125 -1.640625 Q7.111328125 -2.09375 7.314453125 -2.4765625 Q7.517578125 -2.859375 7.861328125 -3.0859375 Q8.205078125 -3.3125 8.626953125 -3.421875 Q8.923828125 -3.515625 9.564453125 -3.59375 Q10.830078125 -3.734375 11.439453125 -3.953125 Q11.439453125 -4.171875 11.439453125 -4.21875 Q11.439453125 -4.875 11.142578125 -5.140625 Q10.736328125 -5.484375 9.939453125 -5.484375 Q9.205078125 -5.484375 8.845703125 -5.2265625 Q8.486328125 -4.96875 8.314453125 -4.3125 L7.283203125 -4.453125 Q7.423828125 -5.109375 7.751953125 -5.515625 Q8.080078125 -5.921875 8.689453125 -6.140625 Q9.298828125 -6.359375 10.095703125 -6.359375 Q10.892578125 -6.359375 11.392578125 -6.171875 Q11.892578125 -5.984375 12.126953125 -5.703125 Q12.361328125 -5.421875 12.455078125 -4.984375 Q12.501953125 -4.71875 12.501953125 -4.015625 L12.501953125 -2.609375 Q12.501953125 -1.140625 12.572265625 -0.75 Q12.642578125 -0.359375 12.845703125 0 L11.736328125 0 Q11.580078125 -0.328125 11.533203125 -0.765625 ZM11.439453125 -3.125 Q10.861328125 -2.890625 9.720703125 -2.71875 Q9.064453125 -2.625 8.798828125 -2.5078125 Q8.533203125 -2.390625 8.384765625 -2.171875 Q8.236328125 -1.953125 8.236328125 -1.671875 Q8.236328125 -1.25 8.556640625 -0.96875 Q8.876953125 -0.6875 9.486328125 -0.6875 Q10.095703125 -0.6875 10.572265625 -0.953125 Q11.048828125 -1.21875 11.267578125 -1.6875 Q11.439453125 -2.046875 11.439453125 -2.734375 L11.439453125 -3.125 ZM14.14453125 0 L14.14453125 -6.21875 L15.08203125 -6.21875 L15.08203125 -5.34375 Q15.76953125 -6.359375 17.06640625 -6.359375 Q17.62890625 -6.359375 18.10546875 -6.15625 Q18.58203125 -5.953125 18.81640625 -5.625 Q19.05078125 -5.296875 19.14453125 -4.859375 Q19.19140625 -4.5625 19.19140625 -3.828125 L19.19140625 0 L18.14453125 0 L18.14453125 -3.78125 Q18.14453125 -4.4375 18.01953125 -4.75 Q17.89453125 -5.0625 17.58203125 -5.2578125 Q17.26953125 -5.453125 16.84765625 -5.453125 Q16.17578125 -5.453125 15.68359375 -5.0234375 Q15.19140625 -4.59375 15.19140625 -3.40625 L15.19140625 0 L14.14453125 0 ZM25.068359375 -2 L26.162109375 -1.875 Q25.912109375 -0.921875 25.208984375 -0.390625 Q24.505859375 0.140625 23.427734375 0.140625 Q22.068359375 0.140625 21.263671875 -0.703125 Q20.458984375 -1.546875 20.458984375 -3.0625 Q20.458984375 -4.625 21.271484375 -5.4921875 Q22.083984375 -6.359375 23.365234375 -6.359375 Q24.615234375 -6.359375 25.404296875 -5.515625 Q26.193359375 -4.671875 26.193359375 -3.125 Q26.193359375 -3.03125 26.193359375 -2.84375 L21.552734375 -2.84375 Q21.615234375 -1.8125 22.130859375 -1.2734375 Q22.646484375 -0.734375 23.427734375 -0.734375 Q24.005859375 -0.734375 24.419921875 -1.0390625 Q24.833984375 -1.34375 25.068359375 -2 ZM21.615234375 -3.703125 L25.083984375 -3.703125 Q25.021484375 -4.5 24.693359375 -4.890625 Q24.177734375 -5.5 23.380859375 -5.5 Q22.646484375 -5.5 22.154296875 -5.015625 Q21.662109375 -4.53125 21.615234375 -3.703125 Z" style="stroke:none"/></g></g></g><g id="Layer_7"/><g id="Layer_8"/><g id="Layer_9"/><g id="Nodes 2"><g xmlns:intalio="http://www.intalio.com/bpms" intalio:activity-id="ID-ee0dc696-c01f-1004-84a4-09d08589d8f5" intalio:activity-label="startTask" intalio:process-id="ID-ee0dc690-c01f-1004-84a4-09d08589d8f5" style="color-interpolation:auto;color-rendering:auto;fill:black;fill-opacity:1;font-family:sans-serif;font-size:12;font-style:normal;font-weight:normal;image-rendering:auto;shape-rendering:auto;stroke:black;stroke-dasharray:none;stroke-dashoffset:0;stroke-linecap:square;stroke-linejoin:miter;stroke-miterlimit:10;stroke-opacity:1;stroke-width:1;text-rendering:auto"><g style="fill:white;stroke:white"><rect height="60" rx="5" ry="5" style="stroke:none" width="110" x="77" y="90"/><rect height="60" rx="5" ry="5" style="fill:none;stroke:black" width="110" x="77" y="90"/></g><g style="shape-rendering:geometricPrecision;text-rendering:optimizeLegibility" transform="matrix(1,0,0,1,108.1796875,124.7138671875)"><path d="M0.375 -1.859375 L1.40625 -2.015625 Q1.5 -1.390625 1.8984375 -1.0625 Q2.296875 -0.734375 3.03125 -0.734375 Q3.75 -0.734375 4.1015625 -1.0234375 Q4.453125 -1.3125 4.453125 -1.71875 Q4.453125 -2.078125 4.140625 -2.28125 Q3.921875 -2.421875 3.0625 -2.640625 Q1.90625 -2.9375 1.4609375 -3.1484375 Q1.015625 -3.359375 0.78125 -3.734375 Q0.546875 -4.109375 0.546875 -4.578125 Q0.546875 -4.984375 0.734375 -5.34375 Q0.921875 -5.703125 1.25 -5.9375 Q1.5 -6.109375 1.921875 -6.234375 Q2.34375 -6.359375 2.84375 -6.359375 Q3.5625 -6.359375 4.1171875 -6.1484375 Q4.671875 -5.9375 4.9375 -5.578125 Q5.203125 -5.21875 5.296875 -4.625 L4.265625 -4.484375 Q4.203125 -4.953125 3.8671875 -5.2265625 Q3.53125 -5.5 2.90625 -5.5 Q2.1875 -5.5 1.875 -5.2578125 Q1.5625 -5.015625 1.5625 -4.6875 Q1.5625 -4.484375 1.6875 -4.328125 Q1.828125 -4.15625 2.09375 -4.046875 Q2.25 -3.984375 3.03125 -3.78125 Q4.15625 -3.46875 4.59375 -3.28125 Q5.03125 -3.09375 5.28125 -2.734375 Q5.53125 -2.375 5.53125 -1.828125 Q5.53125 -1.296875 5.2265625 -0.8359375 Q4.921875 -0.375 4.34375 -0.1171875 Q3.765625 0.140625 3.03125 0.140625 Q1.8125 0.140625 1.1796875 -0.3671875 Q0.546875 -0.875 0.375 -1.859375 ZM9.09375 -0.9375 L9.25 -0.015625 Q8.796875 0.078125 8.453125 0.078125 Q7.875 0.078125 7.5625 -0.1015625 Q7.25 -0.28125 7.1171875 -0.578125 Q6.984375 -0.875 6.984375 -1.828125 L6.984375 -5.40625 L6.21875 -5.40625 L6.21875 -6.21875 L6.984375 -6.21875 L6.984375 -7.765625 L8.03125 -8.390625 L8.03125 -6.21875 L9.09375 -6.21875 L9.09375 -5.40625 L8.03125 -5.40625 L8.03125 -1.765625 Q8.03125 -1.3125 8.0859375 -1.1875 Q8.140625 -1.0625 8.265625 -0.984375 Q8.390625 -0.90625 8.625 -0.90625 Q8.8125 -0.90625 9.09375 -0.9375 ZM14.193359375 -0.765625 Q13.599609375 -0.265625 13.060546875 -0.0625 Q12.521484375 0.140625 11.896484375 0.140625 Q10.865234375 0.140625 10.318359375 -0.359375 Q9.771484375 -0.859375 9.771484375 -1.640625 Q9.771484375 -2.09375 9.974609375 -2.4765625 Q10.177734375 -2.859375 10.521484375 -3.0859375 Q10.865234375 -3.3125 11.287109375 -3.421875 Q11.583984375 -3.515625 12.224609375 -3.59375 Q13.490234375 -3.734375 14.099609375 -3.953125 Q14.099609375 -4.171875 14.099609375 -4.21875 Q14.099609375 -4.875 13.802734375 -5.140625 Q13.396484375 -5.484375 12.599609375 -5.484375 Q11.865234375 -5.484375 11.505859375 -5.2265625 Q11.146484375 -4.96875 10.974609375 -4.3125 L9.943359375 -4.453125 Q10.083984375 -5.109375 10.412109375 -5.515625 Q10.740234375 -5.921875 11.349609375 -6.140625 Q11.958984375 -6.359375 12.755859375 -6.359375 Q13.552734375 -6.359375 14.052734375 -6.171875 Q14.552734375 -5.984375 14.787109375 -5.703125 Q15.021484375 -5.421875 15.115234375 -4.984375 Q15.162109375 -4.71875 15.162109375 -4.015625 L15.162109375 -2.609375 Q15.162109375 -1.140625 15.232421875 -0.75 Q15.302734375 -0.359375 15.505859375 0 L14.396484375 0 Q14.240234375 -0.328125 14.193359375 -0.765625 ZM14.099609375 -3.125 Q13.521484375 -2.890625 12.380859375 -2.71875 Q11.724609375 -2.625 11.458984375 -2.5078125 Q11.193359375 -2.390625 11.044921875 -2.171875 Q10.896484375 -1.953125 10.896484375 -1.671875 Q10.896484375 -1.25 11.216796875 -0.96875 Q11.537109375 -0.6875 12.146484375 -0.6875 Q12.755859375 -0.6875 13.232421875 -0.953125 Q13.708984375 -1.21875 13.927734375 -1.6875 Q14.099609375 -2.046875 14.099609375 -2.734375 L14.099609375 -3.125 ZM16.7890625 0 L16.7890625 -6.21875 L17.7421875 -6.21875 L17.7421875 -5.28125 Q18.1015625 -5.9375 18.40625 -6.1484375 Q18.7109375 -6.359375 19.0859375 -6.359375 Q19.6171875 -6.359375 20.1640625 -6.03125 L19.8046875 -5.046875 Q19.4140625 -5.28125 19.0390625 -5.28125 Q18.6796875 -5.28125 18.40625 -5.0703125 Q18.1328125 -4.859375 18.0234375 -4.484375 Q17.8359375 -3.921875 17.8359375 -3.265625 L17.8359375 0 L16.7890625 0 ZM23.09765625 -0.9375 L23.25390625 -0.015625 Q22.80078125 0.078125 22.45703125 0.078125 Q21.87890625 0.078125 21.56640625 -0.1015625 Q21.25390625 -0.28125 21.12109375 -0.578125 Q20.98828125 -0.875 20.98828125 -1.828125 L20.98828125 -5.40625 L20.22265625 -5.40625 L20.22265625 -6.21875 L20.98828125 -6.21875 L20.98828125 -7.765625 L22.03515625 -8.390625 L22.03515625 -6.21875 L23.09765625 -6.21875 L23.09765625 -5.40625 L22.03515625 -5.40625 L22.03515625 -1.765625 Q22.03515625 -1.3125 22.08984375 -1.1875 Q22.14453125 -1.0625 22.26953125 -0.984375 Q22.39453125 -0.90625 22.62890625 -0.90625 Q22.81640625 -0.90625 23.09765625 -0.9375 ZM26.447265625 0 L26.447265625 -7.578125 L23.619140625 -7.578125 L23.619140625 -8.59375 L30.431640625 -8.59375 L30.431640625 -7.578125 L27.587890625 -7.578125 L27.587890625 0 L26.447265625 0 ZM35.52734375 -0.765625 Q34.93359375 -0.265625 34.39453125 -0.0625 Q33.85546875 0.140625 33.23046875 0.140625 Q32.19921875 0.140625 31.65234375 -0.359375 Q31.10546875 -0.859375 31.10546875 -1.640625 Q31.10546875 -2.09375 31.30859375 -2.4765625 Q31.51171875 -2.859375 31.85546875 -3.0859375 Q32.19921875 -3.3125 32.62109375 -3.421875 Q32.91796875 -3.515625 33.55859375 -3.59375 Q34.82421875 -3.734375 35.43359375 -3.953125 Q35.43359375 -4.171875 35.43359375 -4.21875 Q35.43359375 -4.875 35.13671875 -5.140625 Q34.73046875 -5.484375 33.93359375 -5.484375 Q33.19921875 -5.484375 32.83984375 -5.2265625 Q32.48046875 -4.96875 32.30859375 -4.3125 L31.27734375 -4.453125 Q31.41796875 -5.109375 31.74609375 -5.515625 Q32.07421875 -5.921875 32.68359375 -6.140625 Q33.29296875 -6.359375 34.08984375 -6.359375 Q34.88671875 -6.359375 35.38671875 -6.171875 Q35.88671875 -5.984375 36.12109375 -5.703125 Q36.35546875 -5.421875 36.44921875 -4.984375 Q36.49609375 -4.71875 36.49609375 -4.015625 L36.49609375 -2.609375 Q36.49609375 -1.140625 36.56640625 -0.75 Q36.63671875 -0.359375 36.83984375 0 L35.73046875 0 Q35.57421875 -0.328125 35.52734375 -0.765625 ZM35.43359375 -3.125 Q34.85546875 -2.890625 33.71484375 -2.71875 Q33.05859375 -2.625 32.79296875 -2.5078125 Q32.52734375 -2.390625 32.37890625 -2.171875 Q32.23046875 -1.953125 32.23046875 -1.671875 Q32.23046875 -1.25 32.55078125 -0.96875 Q32.87109375 -0.6875 33.48046875 -0.6875 Q34.08984375 -0.6875 34.56640625 -0.953125 Q35.04296875 -1.21875 35.26171875 -1.6875 Q35.43359375 -2.046875 35.43359375 -2.734375 L35.43359375 -3.125 ZM37.716796875 -1.859375 L38.748046875 -2.015625 Q38.841796875 -1.390625 39.240234375 -1.0625 Q39.638671875 -0.734375 40.373046875 -0.734375 Q41.091796875 -0.734375 41.443359375 -1.0234375 Q41.794921875 -1.3125 41.794921875 -1.71875 Q41.794921875 -2.078125 41.482421875 -2.28125 Q41.263671875 -2.421875 40.404296875 -2.640625 Q39.248046875 -2.9375 38.802734375 -3.1484375 Q38.357421875 -3.359375 38.123046875 -3.734375 Q37.888671875 -4.109375 37.888671875 -4.578125 Q37.888671875 -4.984375 38.076171875 -5.34375 Q38.263671875 -5.703125 38.591796875 -5.9375 Q38.841796875 -6.109375 39.263671875 -6.234375 Q39.685546875 -6.359375 40.185546875 -6.359375 Q40.904296875 -6.359375 41.458984375 -6.1484375 Q42.013671875 -5.9375 42.279296875 -5.578125 Q42.544921875 -5.21875 42.638671875 -4.625 L41.607421875 -4.484375 Q41.544921875 -4.953125 41.208984375 -5.2265625 Q40.873046875 -5.5 40.248046875 -5.5 Q39.529296875 -5.5 39.216796875 -5.2578125 Q38.904296875 -5.015625 38.904296875 -4.6875 Q38.904296875 -4.484375 39.029296875 -4.328125 Q39.169921875 -4.15625 39.435546875 -4.046875 Q39.591796875 -3.984375 40.373046875 -3.78125 Q41.498046875 -3.46875 41.935546875 -3.28125 Q42.373046875 -3.09375 42.623046875 -2.734375 Q42.873046875 -2.375 42.873046875 -1.828125 Q42.873046875 -1.296875 42.568359375 -0.8359375 Q42.263671875 -0.375 41.685546875 -0.1171875 Q41.107421875 0.140625 40.373046875 0.140625 Q39.154296875 0.140625 38.521484375 -0.3671875 Q37.888671875 -0.875 37.716796875 -1.859375 ZM44.138671875 0 L44.138671875 -8.59375 L45.201171875 -8.59375 L45.201171875 -3.6875 L47.685546875 -6.21875 L49.060546875 -6.21875 L46.669921875 -3.921875 L49.294921875 0 L47.998046875 0 L45.935546875 -3.1875 L45.201171875 -2.46875 L45.201171875 0 L44.138671875 0 Z" style="stroke:none"/></g><intalio:activity-names><intalio:activity-name>startTask-Receive</intalio:activity-name><intalio:activity-name>startTask-Reply</intalio:activity-name><intalio:activity-name>startTask-Assign</intalio:activity-name></intalio:activity-names></g><g id="End" xmlns:intalio="http://www.intalio.com/bpms" intalio:activity-id="ID-eec26608-c01f-1004-84a4-09d08589d8f5" intalio:activity-label="" intalio:process-id="ID-ee0dc690-c01f-1004-84a4-09d08589d8f5" style="color-interpolation:auto;color-rendering:auto;fill:black;fill-opacity:1;font-family:sans-serif;font-size:12;font-style:normal;font-weight:normal;image-rendering:auto;shape-rendering:auto;stroke:black;stroke-dasharray:none;stroke-dashoffset:0;stroke-linecap:square;stroke-linejoin:miter;stroke-miterlimit:10;stroke-opacity:1;stroke-width:1;text-rendering:auto"><g style="fill:white;stroke:white" transform="matrix(1,0,0,1,-30.5,-50.5)"><path d="M389.9615478515625 164.1494140625 C389.9615478515625 171.58401489257812 383.93463134765625 177.6109619140625 376.5 177.6109619140625 C369.0653991699219 177.6109619140625 363.0384521484375 171.58401489257812 363.0384521484375 164.1494140625 C363.0384521484375 156.71481323242188 369.0653991699219 150.6878662109375 376.5 150.6878662109375 C383.93463134765625 150.6878662109375 389.9615478515625 156.71481323242188 389.9615478515625 164.1494140625 Z" style="stroke:none"/></g><g style="stroke-linecap:butt;stroke-miterlimit:3;stroke-width:4" transform="matrix(1,0,0,1,-30.5,-50.5)"><path d="M389.9615478515625 164.1494140625 C389.9615478515625 171.58401489257812 383.93463134765625 177.6109619140625 376.5 177.6109619140625 C369.0653991699219 177.6109619140625 363.0384521484375 171.58401489257812 363.0384521484375 164.1494140625 C363.0384521484375 156.71481323242188 369.0653991699219 150.6878662109375 376.5 150.6878662109375 C383.93463134765625 150.6878662109375 389.9615478515625 156.71481323242188 389.9615478515625 164.1494140625 Z" style="fill:none"/></g><intalio:activity-names><intalio:activity-name>Name_Not_Specified</intalio:activity-name></intalio:activity-names></g><g style="color-interpolation:auto;color-rendering:auto;fill:black;fill-opacity:1;font-family:sans-serif;font-size:12;font-style:normal;font-weight:normal;image-rendering:auto;shape-rendering:auto;stroke:black;stroke-dasharray:none;stroke-dashoffset:0;stroke-linecap:square;stroke-linejoin:miter;stroke-miterlimit:10;stroke-opacity:1;stroke-width:1;text-rendering:auto"><g style="fill:white;stroke:white"><rect height="60" rx="5" ry="5" style="stroke:none" width="110" x="68" y="309"/><rect height="60" rx="5" ry="5" style="fill:none;stroke:black" width="110" x="68" y="309"/></g><g style="shape-rendering:geometricPrecision;text-rendering:optimizeLegibility" transform="matrix(1,0,0,1,93.65625,343.7138671875)"><path d="M0.796875 -7.375 L0.796875 -8.59375 L1.859375 -8.59375 L1.859375 -7.375 L0.796875 -7.375 ZM0.796875 0 L0.796875 -6.21875 L1.859375 -6.21875 L1.859375 0 L0.796875 0 ZM3.462890625 0 L3.462890625 -6.21875 L4.400390625 -6.21875 L4.400390625 -5.34375 Q5.087890625 -6.359375 6.384765625 -6.359375 Q6.947265625 -6.359375 7.423828125 -6.15625 Q7.900390625 -5.953125 8.134765625 -5.625 Q8.369140625 -5.296875 8.462890625 -4.859375 Q8.509765625 -4.5625 8.509765625 -3.828125 L8.509765625 0 L7.462890625 0 L7.462890625 -3.78125 Q7.462890625 -4.4375 7.337890625 -4.75 Q7.212890625 -5.0625 6.900390625 -5.2578125 Q6.587890625 -5.453125 6.166015625 -5.453125 Q5.494140625 -5.453125 5.001953125 -5.0234375 Q4.509765625 -4.59375 4.509765625 -3.40625 L4.509765625 0 L3.462890625 0 ZM10.13671875 -7.375 L10.13671875 -8.59375 L11.19921875 -8.59375 L11.19921875 -7.375 L10.13671875 -7.375 ZM10.13671875 0 L10.13671875 -6.21875 L11.19921875 -6.21875 L11.19921875 0 L10.13671875 0 ZM15.099609375 -0.9375 L15.255859375 -0.015625 Q14.802734375 0.078125 14.458984375 0.078125 Q13.880859375 0.078125 13.568359375 -0.1015625 Q13.255859375 -0.28125 13.123046875 -0.578125 Q12.990234375 -0.875 12.990234375 -1.828125 L12.990234375 -5.40625 L12.224609375 -5.40625 L12.224609375 -6.21875 L12.990234375 -6.21875 L12.990234375 -7.765625 L14.037109375 -8.390625 L14.037109375 -6.21875 L15.099609375 -6.21875 L15.099609375 -5.40625 L14.037109375 -5.40625 L14.037109375 -1.765625 Q14.037109375 -1.3125 14.091796875 -1.1875 Q14.146484375 -1.0625 14.271484375 -0.984375 Q14.396484375 -0.90625 14.630859375 -0.90625 Q14.818359375 -0.90625 15.099609375 -0.9375 ZM16.26171875 0 L16.26171875 -8.59375 L19.51171875 -8.59375 Q20.35546875 -8.59375 20.80859375 -8.515625 Q21.44921875 -8.40625 21.87890625 -8.109375 Q22.30859375 -7.8125 22.56640625 -7.28125 Q22.82421875 -6.75 22.82421875 -6.109375 Q22.82421875 -5.015625 22.12890625 -4.2578125 Q21.43359375 -3.5 19.60546875 -3.5 L17.40234375 -3.5 L17.40234375 0 L16.26171875 0 ZM17.40234375 -4.5 L19.62109375 -4.5 Q20.73046875 -4.5 21.19140625 -4.9140625 Q21.65234375 -5.328125 21.65234375 -6.078125 Q21.65234375 -6.609375 21.37890625 -6.9921875 Q21.10546875 -7.375 20.66796875 -7.5 Q20.37109375 -7.578125 19.60546875 -7.578125 L17.40234375 -7.578125 L17.40234375 -4.5 ZM24.125 0 L24.125 -6.21875 L25.078125 -6.21875 L25.078125 -5.28125 Q25.4375 -5.9375 25.7421875 -6.1484375 Q26.046875 -6.359375 26.421875 -6.359375 Q26.953125 -6.359375 27.5 -6.03125 L27.140625 -5.046875 Q26.75 -5.28125 26.375 -5.28125 Q26.015625 -5.28125 25.7421875 -5.0703125 Q25.46875 -4.859375 25.359375 -4.484375 Q25.171875 -3.921875 25.171875 -3.265625 L25.171875 0 L24.125 0 ZM27.74609375 -3.109375 Q27.74609375 -4.84375 28.69921875 -5.671875 Q29.49609375 -6.359375 30.65234375 -6.359375 Q31.93359375 -6.359375 32.75390625 -5.5234375 Q33.57421875 -4.6875 33.57421875 -3.203125 Q33.57421875 -2 33.21484375 -1.3125 Q32.85546875 -0.625 32.16015625 -0.2421875 Q31.46484375 0.140625 30.65234375 0.140625 Q29.35546875 0.140625 28.55078125 -0.6953125 Q27.74609375 -1.53125 27.74609375 -3.109375 ZM28.82421875 -3.109375 Q28.82421875 -1.921875 29.34765625 -1.328125 Q29.87109375 -0.734375 30.65234375 -0.734375 Q31.44921875 -0.734375 31.96484375 -1.328125 Q32.48046875 -1.921875 32.48046875 -3.140625 Q32.48046875 -4.296875 31.95703125 -4.890625 Q31.43359375 -5.484375 30.65234375 -5.484375 Q29.87109375 -5.484375 29.34765625 -4.8984375 Q28.82421875 -4.3125 28.82421875 -3.109375 ZM38.873046875 -2.28125 L39.904296875 -2.140625 Q39.732421875 -1.078125 39.029296875 -0.46875 Q38.326171875 0.140625 37.310546875 0.140625 Q36.029296875 0.140625 35.255859375 -0.6953125 Q34.482421875 -1.53125 34.482421875 -3.09375 Q34.482421875 -4.09375 34.818359375 -4.8515625 Q35.154296875 -5.609375 35.833984375 -5.984375 Q36.513671875 -6.359375 37.326171875 -6.359375 Q38.326171875 -6.359375 38.974609375 -5.8515625 Q39.623046875 -5.34375 39.810546875 -4.390625 L38.779296875 -4.234375 Q38.638671875 -4.859375 38.263671875 -5.1796875 Q37.888671875 -5.5 37.357421875 -5.5 Q36.560546875 -5.5 36.060546875 -4.9296875 Q35.560546875 -4.359375 35.560546875 -3.125 Q35.560546875 -1.859375 36.044921875 -1.296875 Q36.529296875 -0.734375 37.294921875 -0.734375 Q37.919921875 -0.734375 38.333984375 -1.109375 Q38.748046875 -1.484375 38.873046875 -2.28125 ZM45.060546875 -2 L46.154296875 -1.875 Q45.904296875 -0.921875 45.201171875 -0.390625 Q44.498046875 0.140625 43.419921875 0.140625 Q42.060546875 0.140625 41.255859375 -0.703125 Q40.451171875 -1.546875 40.451171875 -3.0625 Q40.451171875 -4.625 41.263671875 -5.4921875 Q42.076171875 -6.359375 43.357421875 -6.359375 Q44.607421875 -6.359375 45.396484375 -5.515625 Q46.185546875 -4.671875 46.185546875 -3.125 Q46.185546875 -3.03125 46.185546875 -2.84375 L41.544921875 -2.84375 Q41.607421875 -1.8125 42.123046875 -1.2734375 Q42.638671875 -0.734375 43.419921875 -0.734375 Q43.998046875 -0.734375 44.412109375 -1.0390625 Q44.826171875 -1.34375 45.060546875 -2 ZM41.607421875 -3.703125 L45.076171875 -3.703125 Q45.013671875 -4.5 44.685546875 -4.890625 Q44.169921875 -5.5 43.373046875 -5.5 Q42.638671875 -5.5 42.146484375 -5.015625 Q41.654296875 -4.53125 41.607421875 -3.703125 ZM47.0625 -1.859375 L48.09375 -2.015625 Q48.1875 -1.390625 48.5859375 -1.0625 Q48.984375 -0.734375 49.71875 -0.734375 Q50.4375 -0.734375 50.7890625 -1.0234375 Q51.140625 -1.3125 51.140625 -1.71875 Q51.140625 -2.078125 50.828125 -2.28125 Q50.609375 -2.421875 49.75 -2.640625 Q48.59375 -2.9375 48.1484375 -3.1484375 Q47.703125 -3.359375 47.46875 -3.734375 Q47.234375 -4.109375 47.234375 -4.578125 Q47.234375 -4.984375 47.421875 -5.34375 Q47.609375 -5.703125 47.9375 -5.9375 Q48.1875 -6.109375 48.609375 -6.234375 Q49.03125 -6.359375 49.53125 -6.359375 Q50.25 -6.359375 50.8046875 -6.1484375 Q51.359375 -5.9375 51.625 -5.578125 Q51.890625 -5.21875 51.984375 -4.625 L50.953125 -4.484375 Q50.890625 -4.953125 50.5546875 -5.2265625 Q50.21875 -5.5 49.59375 -5.5 Q48.875 -5.5 48.5625 -5.2578125 Q48.25 -5.015625 48.25 -4.6875 Q48.25 -4.484375 48.375 -4.328125 Q48.515625 -4.15625 48.78125 -4.046875 Q48.9375 -3.984375 49.71875 -3.78125 Q50.84375 -3.46875 51.28125 -3.28125 Q51.71875 -3.09375 51.96875 -2.734375 Q52.21875 -2.375 52.21875 -1.828125 Q52.21875 -1.296875 51.9140625 -0.8359375 Q51.609375 -0.375 51.03125 -0.1171875 Q50.453125 0.140625 49.71875 0.140625 Q48.5 0.140625 47.8671875 -0.3671875 Q47.234375 -0.875 47.0625 -1.859375 ZM53.0625 -1.859375 L54.09375 -2.015625 Q54.1875 -1.390625 54.5859375 -1.0625 Q54.984375 -0.734375 55.71875 -0.734375 Q56.4375 -0.734375 56.7890625 -1.0234375 Q57.140625 -1.3125 57.140625 -1.71875 Q57.140625 -2.078125 56.828125 -2.28125 Q56.609375 -2.421875 55.75 -2.640625 Q54.59375 -2.9375 54.1484375 -3.1484375 Q53.703125 -3.359375 53.46875 -3.734375 Q53.234375 -4.109375 53.234375 -4.578125 Q53.234375 -4.984375 53.421875 -5.34375 Q53.609375 -5.703125 53.9375 -5.9375 Q54.1875 -6.109375 54.609375 -6.234375 Q55.03125 -6.359375 55.53125 -6.359375 Q56.25 -6.359375 56.8046875 -6.1484375 Q57.359375 -5.9375 57.625 -5.578125 Q57.890625 -5.21875 57.984375 -4.625 L56.953125 -4.484375 Q56.890625 -4.953125 56.5546875 -5.2265625 Q56.21875 -5.5 55.59375 -5.5 Q54.875 -5.5 54.5625 -5.2578125 Q54.25 -5.015625 54.25 -4.6875 Q54.25 -4.484375 54.375 -4.328125 Q54.515625 -4.15625 54.78125 -4.046875 Q54.9375 -3.984375 55.71875 -3.78125 Q56.84375 -3.46875 57.28125 -3.28125 Q57.71875 -3.09375 57.96875 -2.734375 Q58.21875 -2.375 58.21875 -1.828125 Q58.21875 -1.296875 57.9140625 -0.8359375 Q57.609375 -0.375 57.03125 -0.1171875 Q56.453125 0.140625 55.71875 0.140625 Q54.5 0.140625 53.8671875 -0.3671875 Q53.234375 -0.875 53.0625 -1.859375 Z" style="stroke:none"/></g></g></g><g id="Layer_11"/><g id="Links"><g style="color-interpolation:auto;color-rendering:auto;fill:black;fill-opacity:1;font-family:sans-serif;font-size:12;font-style:normal;font-weight:normal;image-rendering:auto;shape-rendering:auto;stroke:black;stroke-dasharray:none;stroke-dashoffset:0;stroke-linecap:square;stroke-linejoin:miter;stroke-miterlimit:10;stroke-opacity:1;stroke-width:1;text-rendering:auto"><g style="stroke-linejoin:round"><path d="M187.8505859375 120 L254.19451904296875 120 Q259.19451904296875 120 259.19451904296875 116.82470703125 L259.19451904296875 116.82470703125 Q259.19451904296875 113.6494140625 264.19451904296875 113.6494140625 L328.8746643066406 113.6494140625" style="fill:none"/><path d="M330.5384521484375 113.6494140625 L321.6996154785156 108.34611511230469 Q327.0029296875 113.6494140625 321.6996154785156 118.95271301269531 Z" style="stroke:none"/></g></g><g style="color-interpolation:auto;color-rendering:auto;fill:black;fill-opacity:1;font-family:sans-serif;font-size:12;font-style:normal;font-weight:normal;image-rendering:auto;shape-rendering:auto;stroke:black;stroke-dasharray:none;stroke-dashoffset:0;stroke-linecap:square;stroke-linejoin:miter;stroke-miterlimit:10;stroke-opacity:1;stroke-width:1;text-rendering:auto"><g style="stroke-dasharray:6,6;stroke-linejoin:round"><path d="M127.3505859375 150 L127.3505859375 224.5 Q127.3505859375 229.5 122.42529296875 229.5 L122.42529296875 229.5 Q117.5 229.5 117.5 234.5 L117.5 297.381103515625" style="fill:none"/></g><g style="fill:white;stroke:white"><path d="M131 154 C131 151.79086303710938 129.20913696289062 150 127 150 C124.79086303710938 150 123 151.79086303710938 123 154 C123 156.20913696289062 124.79086303710938 158 127 158 C129.20913696289062 158 131 156.20913696289062 131 154 L127 154 Z" style="stroke:none"/><path d="M131 154 C131 151.79086303710938 129.20913696289062 150 127 150 C124.79086303710938 150 123 151.79086303710938 123 154 C123 156.20913696289062 124.79086303710938 158 127 158 C129.20913696289062 158 131 156.20913696289062 131 154" style="fill:none;stroke:black"/><path d="M-10 -10 L0 -5 L-10 0 Z" style="stroke:none" transform="matrix(6.123233995736766E-17,1,-1,6.123233995736766E-17,112.5,307.881103515625)"/></g><g style="stroke-linecap:butt" transform="matrix(6.123233995736766E-17,1,-1,6.123233995736766E-17,112.5,307.881103515625)"><path d="M-10 -10 L0 -5 L-10 0 Z" style="fill:none"/></g><g style="fill:white;stroke:white" transform="matrix(1,0,0,1,109.92530059814453,217)"><path d="M23.978260040283203 12.5 C23.978260040283203 18.83926773071289 18.83926773071289 23.978260040283203 12.5 23.978260040283203 C6.160731315612793 23.978260040283203 1.02173912525177 18.83926773071289 1.02173912525177 12.5 C1.02173912525177 6.160731315612793 6.160731315612793 1.02173912525177 12.5 1.02173912525177 C18.83926773071289 1.02173912525177 23.978260040283203 6.160731315612793 23.978260040283203 12.5 Z" style="stroke:none"/></g><g style="stroke-linecap:butt;stroke-miterlimit:4" transform="matrix(1,0,0,1,109.92530059814453,217)"><path d="M23.978260040283203 12.5 C23.978260040283203 18.83926773071289 18.83926773071289 23.978260040283203 12.5 23.978260040283203 C6.160731315612793 23.978260040283203 1.02173912525177 18.83926773071289 1.02173912525177 12.5 C1.02173912525177 6.160731315612793 6.160731315612793 1.02173912525177 12.5 1.02173912525177 C18.83926773071289 1.02173912525177 23.978260040283203 6.160731315612793 23.978260040283203 12.5 Z" style="fill:none"/></g><g style="fill:white;stroke:white" transform="matrix(1,0,0,1,109.92530059814453,217)"><path d="M7.282608509063721 5.195652008056641 L14.586956977844238 5.195652008056641 L17.717391967773438 8.32608699798584 L17.717391967773438 19.80434799194336 L7.282608509063721 19.80434799194336 Z" style="stroke:none"/></g><g style="stroke-linecap:butt;stroke-miterlimit:4" transform="matrix(1,0,0,1,109.92530059814453,217)"><path d="M7.282608509063721 5.195652008056641 L14.586956977844238 5.195652008056641 L17.717391967773438 8.32608699798584 L17.717391967773438 19.80434799194336 L7.282608509063721 19.80434799194336 Z" style="fill:none"/></g><g style="stroke-linecap:butt;stroke-miterlimit:4" transform="matrix(1,0,0,1,109.92530059814453,217)"><path d="M14.586956977844238 5.195652008056641 L14.586956977844238 8.32608699798584 L17.717391967773438 8.32608699798584" style="fill:none"/></g><g style="fill:green;stroke:green;stroke-linecap:butt;stroke-miterlimit:4" transform="matrix(1,0,0,1,109.92530059814453,217)"><path d="M9.3695650100708 7.282608509063721 L9.3695650100708 17.717391967773438 L13.543478012084961 17.717391967773438 M14.586956977844238 17.717391967773438 L15.6304349899292 17.717391967773438 M9.3695650100708 10.413043022155762 L13.543478012084961 10.413043022155762 M14.586956977844238 10.413043022155762 L15.6304349899292 10.413043022155762 M9.3695650100708 14.586956977844238 L13.543478012084961 14.586956977844238 M14.586956977844238 14.586956977844238 L15.6304349899292 14.586956977844238" style="fill:none"/></g></g><g style="color-interpolation:auto;color-rendering:auto;fill:black;fill-opacity:1;font-family:sans-serif;font-size:12;font-style:normal;font-weight:normal;image-rendering:auto;shape-rendering:auto;stroke:black;stroke-dasharray:none;stroke-dashoffset:0;stroke-linecap:square;stroke-linejoin:miter;stroke-miterlimit:10;stroke-opacity:1;stroke-width:1;text-rendering:auto"><g style="stroke-dasharray:6,6;stroke-linejoin:round"><path d="M128.5 309 L128.5 234.5 Q128.5 229.5 133.42529296875 229.5 L133.42529296875 229.5 Q138.3505859375 229.5 138.3505859375 224.5 L138.3505859375 161.618896484375" style="fill:none"/></g><g style="fill:white;stroke:white"><path d="M132 305 C132 302.7908630371094 130.20913696289062 301 128 301 C125.79086303710938 301 124 302.7908630371094 124 305 C124 307.2091369628906 125.79086303710938 309 128 309 C130.20913696289062 309 132 307.2091369628906 132 305 L128 305 Z" style="stroke:none"/><path d="M132 305 C132 302.7908630371094 130.20913696289062 301 128 301 C125.79086303710938 301 124 302.7908630371094 124 305 C124 307.2091369628906 125.79086303710938 309 128 309 C130.20913696289062 309 132 307.2091369628906 132 305" style="fill:none;stroke:black"/><path d="M-10 -10 L0 -5 L-10 0 Z" style="stroke:none" transform="matrix(6.123233995736766E-17,-1,1,6.123233995736766E-17,143.3505859375,151.118896484375)"/></g><g style="stroke-linecap:butt" transform="matrix(6.123233995736766E-17,-1,1,6.123233995736766E-17,143.3505859375,151.118896484375)"><path d="M-10 -10 L0 -5 L-10 0 Z" style="fill:none"/></g><g style="fill:white;stroke:white" transform="matrix(1,0,0,1,120.92530059814453,217)"><path d="M23.978260040283203 12.5 C23.978260040283203 18.83926773071289 18.83926773071289 23.978260040283203 12.5 23.978260040283203 C6.160731315612793 23.978260040283203 1.02173912525177 18.83926773071289 1.02173912525177 12.5 C1.02173912525177 6.160731315612793 6.160731315612793 1.02173912525177 12.5 1.02173912525177 C18.83926773071289 1.02173912525177 23.978260040283203 6.160731315612793 23.978260040283203 12.5 Z" style="stroke:none"/></g><g style="stroke-linecap:butt;stroke-miterlimit:4" transform="matrix(1,0,0,1,120.92530059814453,217)"><path d="M23.978260040283203 12.5 C23.978260040283203 18.83926773071289 18.83926773071289 23.978260040283203 12.5 23.978260040283203 C6.160731315612793 23.978260040283203 1.02173912525177 18.83926773071289 1.02173912525177 12.5 C1.02173912525177 6.160731315612793 6.160731315612793 1.02173912525177 12.5 1.02173912525177 C18.83926773071289 1.02173912525177 23.978260040283203 6.160731315612793 23.978260040283203 12.5 Z" style="fill:none"/></g><g style="fill:white;stroke:white" transform="matrix(1,0,0,1,120.92530059814453,217)"><path d="M7.282608509063721 5.195652008056641 L14.586956977844238 5.195652008056641 L17.717391967773438 8.32608699798584 L17.717391967773438 19.80434799194336 L7.282608509063721 19.80434799194336 Z" style="stroke:none"/></g><g style="stroke-linecap:butt;stroke-miterlimit:4" transform="matrix(1,0,0,1,120.92530059814453,217)"><path d="M7.282608509063721 5.195652008056641 L14.586956977844238 5.195652008056641 L17.717391967773438 8.32608699798584 L17.717391967773438 19.80434799194336 L7.282608509063721 19.80434799194336 Z" style="fill:none"/></g><g style="stroke-linecap:butt;stroke-miterlimit:4" transform="matrix(1,0,0,1,120.92530059814453,217)"><path d="M14.586956977844238 5.195652008056641 L14.586956977844238 8.32608699798584 L17.717391967773438 8.32608699798584" style="fill:none"/></g><g style="fill:green;stroke:green;stroke-linecap:butt;stroke-miterlimit:4" transform="matrix(1,0,0,1,120.92530059814453,217)"><path d="M9.3695650100708 7.282608509063721 L9.3695650100708 17.717391967773438 L13.543478012084961 17.717391967773438 M14.586956977844238 17.717391967773438 L15.6304349899292 17.717391967773438 M9.3695650100708 10.413043022155762 L13.543478012084961 10.413043022155762 M14.586956977844238 10.413043022155762 L15.6304349899292 10.413043022155762 M9.3695650100708 14.586956977844238 L13.543478012084961 14.586956977844238 M14.586956977844238 14.586956977844238 L15.6304349899292 14.586956977844238" style="fill:none"/></g></g></g></svg>